<svg id="visual" viewBox="0 0 900 600" width="900" height="600" xmlns="http://www.w3.org/2000/svg" xmlns:xlink="http://www.w3.org/1999/xlink" version="1.1"><path d="M0 139L13.7 139C27.3 139 54.7 139 82 128C109.3 117 136.7 95 163.8 82C191 69 218 65 245.2 69C272.3 73 299.7 85 327 94C354.3 103 381.7 109 409 113C436.3 117 463.7 119 491 122C518.3 125 545.7 129 573 119C600.3 109 627.7 85 654.8 92C682 99 709 137 736.2 153C763.3 169 790.7 163 818 146C845.3 129 872.7 101 886.3 87L900 73L900 0L886.3 0C872.7 0 845.3 0 818 0C790.7 0 763.3 0 736.2 0C709 0 682 0 654.8 0C627.7 0 600.3 0 573 0C545.7 0 518.3 0 491 0C463.7 0 436.3 0 409 0C381.7 0 354.3 0 327 0C299.7 0 272.3 0 245.2 0C218 0 191 0 163.8 0C136.7 0 109.3 0 82 0C54.7 0 27.3 0 13.7 0L0 0Z" fill="#6198ff"></path><path d="M0 187L13.7 192C27.3 197 54.7 207 82 200C109.3 193 136.7 169 163.8 157C191 145 218 145 245.2 154C272.3 163 299.7 181 327 189C354.3 197 381.7 195 409 198C436.3 201 463.7 209 491 206C518.3 203 545.7 189 573 170C600.3 151 627.7 127 654.8 138C682 149 709 195 736.2 217C763.3 239 790.7 237 818 218C845.3 199 872.7 163 886.3 145L900 127L900 71L886.3 85C872.7 99 845.3 127 818 144C790.7 161 763.3 167 736.2 151C709 135 682 97 654.8 90C627.7 83 600.3 107 573 117C545.7 127 518.3 123 491 120C463.7 117 436.3 115 409 111C381.7 107 354.3 101 327 92C299.7 83 272.3 71 245.2 67C218 63 191 67 163.8 80C136.7 93 109.3 115 82 126C54.7 137 27.3 137 13.7 137L0 137Z" fill="#3c80ff"></path><path d="M0 379L13.7 375C27.3 371 54.7 363 82 367C109.3 371 136.7 387 163.8 370C191 353 218 303 245.2 289C272.3 275 299.7 297 327 304C354.3 311 381.7 303 409 316C436.3 329 463.7 363 491 372C518.3 381 545.7 365 573 342C600.3 319 627.7 289 654.8 283C682 277 709 295 736.2 322C763.3 349 790.7 385 818 391C845.3 397 872.7 373 886.3 361L900 349L900 125L886.3 143C872.7 161 845.3 197 818 216C790.7 235 763.3 237 736.2 215C709 193 682 147 654.8 136C627.7 125 600.3 149 573 168C545.7 187 518.3 201 491 204C463.7 207 436.3 199 409 196C381.7 193 354.3 195 327 187C299.7 179 272.3 161 245.2 152C218 143 191 143 163.8 155C136.7 167 109.3 191 82 198C54.7 205 27.3 195 13.7 190L0 185Z" fill="#0066ff"></path><path d="M0 499L13.7 490C27.3 481 54.7 463 82 454C109.3 445 136.7 445 163.8 421C191 397 218 349 245.2 338C272.3 327 299.7 353 327 372C354.3 391 381.7 403 409 422C436.3 441 463.7 467 491 463C518.3 459 545.7 425 573 394C600.3 363 627.7 335 654.8 331C682 327 709 347 736.2 373C763.3 399 790.7 431 818 435C845.3 439 872.7 415 886.3 403L900 391L900 347L886.3 359C872.7 371 845.3 395 818 389C790.7 383 763.3 347 736.2 320C709 293 682 275 654.8 281C627.7 287 600.3 317 573 340C545.7 363 518.3 379 491 370C463.7 361 436.3 327 409 314C381.7 301 354.3 309 327 302C299.7 295 272.3 273 245.2 287C218 301 191 351 163.8 368C136.7 385 109.3 369 82 365C54.7 361 27.3 369 13.7 373L0 377Z" fill="#0059dd"></path><path d="M0 601L13.7 601C27.3 601 54.7 601 82 601C109.3 601 136.7 601 163.8 601C191 601 218 601 245.2 601C272.3 601 299.7 601 327 601C354.3 601 381.7 601 409 601C436.3 601 463.7 601 491 601C518.3 601 545.7 601 573 601C600.3 601 627.7 601 654.8 601C682 601 709 601 736.2 601C763.3 601 790.7 601 818 601C845.3 601 872.7 601 886.3 601L900 601L900 389L886.3 401C872.7 413 845.3 437 818 433C790.7 429 763.3 397 736.2 371C709 345 682 325 654.8 329C627.7 333 600.3 361 573 392C545.7 423 518.3 457 491 461C463.7 465 436.3 439 409 420C381.7 401 354.3 389 327 370C299.7 351 272.3 325 245.2 336C218 347 191 395 163.8 419C136.7 443 109.3 443 82 452C54.7 461 27.3 479 13.7 488L0 497Z" fill="#004cbb"></path></svg>